<svg width="97" height="90" viewBox="0 0 97 90" fill="none" xmlns="http://www.w3.org/2000/svg">
<path d="M89.5656 1.31458H6.72401C3.56273 1.31458 1 3.96855 1 7.2424V65.1807C1 68.4545 3.56273 71.1085 6.72401 71.1085H89.5656C92.7269 71.1085 95.2896 68.4545 95.2896 65.1807V7.2424C95.2896 3.96855 92.7269 1.31458 89.5656 1.31458Z" stroke="white" stroke-width="1.75" stroke-linecap="round" stroke-linejoin="round"/>
<path d="M54.9463 71.1085H41.3432C41.3432 80.1991 34.9578 88.9173 29.3159 88.9173V88.977H66.9714V88.9173C61.3317 88.9173 54.9441 80.1991 54.9441 71.1085H54.9463Z" stroke="white" stroke-width="1.75" stroke-linecap="round" stroke-linejoin="round"/>
<path d="M39.8521 27.4442L48.144 36.0314" stroke="white" stroke-width="1.75" stroke-linecap="round" stroke-linejoin="round"/>
<path d="M60.2754 23.4698L48.1438 36.0311" stroke="white" stroke-width="1.75" stroke-linecap="round" stroke-linejoin="round"/>
<path d="M48.1437 59.8803C60.8624 59.8803 71.1729 49.2027 71.1729 36.0311C71.1729 22.8595 60.8624 12.1819 48.1437 12.1819C35.425 12.1819 25.1145 22.8595 25.1145 36.0311C25.1145 49.2027 35.425 59.8803 48.1437 59.8803Z" stroke="white" stroke-width="1.75" stroke-linecap="round" stroke-linejoin="round"/>
</svg>
