<svg width="102" height="103" viewBox="0 0 102 103" fill="none" xmlns="http://www.w3.org/2000/svg">
<path d="M74.0254 42.9154L87.2911 46.0555" stroke="white" stroke-width="1.75" stroke-miterlimit="10" stroke-linecap="round" stroke-linejoin="round"/>
<path d="M14.428 46.0556L27.6694 42.9197" stroke="white" stroke-width="1.75" stroke-miterlimit="10" stroke-linecap="round" stroke-linejoin="round"/>
<path d="M34.5509 50.7971C34.5326 50.1065 34.257 49.4391 33.7685 48.9479L22.3938 37.4662C20.8534 35.9129 21.7047 33.2052 23.8308 32.884L28.8919 32.1221L35.8116 31.081L39.5491 30.5184C40.3943 30.3904 41.1239 29.8426 41.503 29.0491L48.5341 14.2972C49.4847 12.301 52.2351 12.301 53.1857 14.2972L60.2149 29.0491C60.5918 29.8426 61.3235 30.3925 62.1687 30.5184L77.889 32.884C80.0172 33.2052 80.8664 35.9129 79.326 37.4662L67.9514 48.9479C67.469 49.4349 67.1933 50.0918 67.169 50.7761" stroke="white" stroke-width="1.75" stroke-miterlimit="10" stroke-linecap="round" stroke-linejoin="round"/>
<path d="M87.2914 63.1708V91.7679C87.2914 92.7733 86.6206 93.6465 85.674 93.869L51.3128 102.003C51.0149 102.074 50.7068 102.074 50.4088 102.003L31.9381 97.6305L25.0326 95.9953L16.0476 93.869C15.1011 93.6444 14.4302 92.7733 14.4302 91.7679V63.1057" stroke="white" stroke-width="1.75" stroke-miterlimit="10" stroke-linecap="round" stroke-linejoin="round"/>
<path d="M50.8604 54.678V76.8962V84.2469V101.795" stroke="white" stroke-width="1.75" stroke-miterlimit="10" stroke-linecap="round" stroke-linejoin="round"/>
<path d="M50.8606 54.6785L64.1831 68.4775L71.7858 66.7059L78.673 65.1001L100.719 59.9617L87.2912 46.0557L50.8606 54.6785ZM50.8606 54.6785L14.4279 46.0557L1 59.9617L37.536 68.4775L50.8606 54.6785Z" stroke="white" stroke-width="1.75" stroke-miterlimit="10" stroke-linecap="round" stroke-linejoin="round"/>
<path d="M50.8604 1.60242V8.07161" stroke="white" stroke-width="1.75" stroke-miterlimit="10" stroke-linecap="round" stroke-linejoin="round"/>
<path d="M71.934 7.04297L63.6868 16.3815" stroke="white" stroke-width="1.75" stroke-miterlimit="10" stroke-linecap="round" stroke-linejoin="round"/>
<path d="M86.1545 18.5625L81.3711 22.7207" stroke="white" stroke-width="1.75" stroke-miterlimit="10" stroke-linecap="round" stroke-linejoin="round"/>
<path d="M30.4807 7.76294L38.0348 16.3815" stroke="white" stroke-width="1.75" stroke-miterlimit="10" stroke-linecap="round" stroke-linejoin="round"/>
<path d="M15.5647 18.5625L20.3481 22.7207" stroke="white" stroke-width="1.75" stroke-miterlimit="10" stroke-linecap="round" stroke-linejoin="round"/>
</svg>
