<svg width="80" height="93" viewBox="0 0 80 93" fill="none" xmlns="http://www.w3.org/2000/svg">
<path d="M1 91.5348V82.3562C1 65.5116 14.7166 51.7764 31.5611 51.7764H47.9389C64.7834 51.7764 78.5 65.4929 78.5 82.3562V91.5348" stroke="white" stroke-width="1.75" stroke-miterlimit="10" stroke-linecap="round" stroke-linejoin="round"/>
<path d="M54.6242 52.7195C50.2823 58.3499 45.4455 61.2071 40.254 61.2071C31.5049 61.2071 25.1555 53.065 24.894 52.7195" stroke="white" stroke-width="1.75" stroke-miterlimit="10" stroke-linecap="round" stroke-linejoin="round"/>
<path d="M39.946 51.7672C39.3858 51.7672 38.8722 51.459 38.6201 50.9455L34.9786 43.7651C34.0728 41.9816 32.2614 40.8705 30.2539 40.8705H21.7289C15.8463 40.8705 11.075 36.0898 11.075 30.2166V11.6539C11.075 5.77138 15.8557 1 21.7289 1H57.7617C63.6442 1 68.4156 5.78072 68.4156 11.6539V30.2072C68.4156 36.0898 63.6349 40.8611 57.7617 40.8611H49.3861C47.3506 40.8611 45.4644 42.047 44.5867 43.9051L41.2906 50.8988C41.0572 51.4217 40.5343 51.7485 39.9647 51.7485C39.9647 51.7485 39.9585 51.7547 39.946 51.7672Z" stroke="white" stroke-width="1.75" stroke-miterlimit="10" stroke-linecap="round" stroke-linejoin="round"/>
<path d="M39.7497 30.8143C39.5723 30.8143 39.3856 30.7676 39.2175 30.6835C29.5347 25.8655 28.9931 20.263 29.2079 18.0688C29.4786 15.2209 31.4208 12.8212 34.0073 12.1115C36.7524 11.3552 38.6293 12.6531 39.7497 14.2124C40.8702 12.6531 42.7564 11.3552 45.4922 12.1115C48.0787 12.8212 50.0115 15.2209 50.2916 18.0688C50.5064 20.2537 49.9461 25.8561 40.282 30.6835C40.1139 30.7676 39.9271 30.8143 39.7497 30.8143Z" stroke="white" stroke-width="1.75" stroke-miterlimit="10" stroke-linecap="round" stroke-linejoin="round"/>
<path d="M16.8083 73.1592V91.5351" stroke="white" stroke-width="1.75" stroke-miterlimit="10" stroke-linecap="round" stroke-linejoin="round"/>
<path d="M62.6917 73.1592V91.5351" stroke="white" stroke-width="1.75" stroke-miterlimit="10" stroke-linecap="round" stroke-linejoin="round"/>
</svg>
