<svg width="95" height="95" viewBox="0 0 95 95" fill="none" xmlns="http://www.w3.org/2000/svg">
<path d="M75.3364 55.0448H80.0123C83.1392 55.0448 85.6831 52.5009 85.6831 49.3741C85.6831 46.2472 83.1392 43.7033 80.0123 43.7033H76.1759" stroke="white" stroke-width="1.75" stroke-miterlimit="10" stroke-linecap="round" stroke-linejoin="round"/>
<path d="M72.271 35.3866H80.0127C87.7256 35.3866 94.0005 41.6614 94.0005 49.3744C94.0005 57.0873 87.7256 63.3622 80.0127 63.3622H72.6449" stroke="white" stroke-width="1.75" stroke-miterlimit="10" stroke-linecap="round" stroke-linejoin="round"/>
<path d="M1 77.3657C1 82.3768 5.06214 86.4389 10.0732 86.4389H17.6342C17.6342 90.6146 21.0194 93.9999 25.1951 93.9999H61.4876C65.6636 93.9999 69.0486 90.6146 69.0486 86.4389H76.6096C81.6206 86.4389 85.6828 82.3768 85.6828 77.3657H1Z" stroke="white" stroke-width="1.75" stroke-miterlimit="10" stroke-linecap="round" stroke-linejoin="round"/>
<path d="M58.5899 26.8964C61.1949 24.2914 61.1949 20.0679 58.5899 17.4627C55.985 14.8578 55.985 10.6342 58.5899 8.02927" stroke="white" stroke-width="1.75" stroke-miterlimit="10" stroke-linecap="round" stroke-linejoin="round"/>
<path d="M28.0924 26.8964C30.6973 24.2914 30.6973 20.0679 28.0924 17.4627C25.4874 14.8578 25.4874 10.6342 28.0924 8.02927" stroke="white" stroke-width="1.75" stroke-miterlimit="10" stroke-linecap="round" stroke-linejoin="round"/>
<path d="M43.3414 26.8964C46.9169 23.3208 46.9169 17.5238 43.3414 13.9482C39.7658 10.3726 39.7658 4.5756 43.3414 1.00001" stroke="white" stroke-width="1.75" stroke-miterlimit="10" stroke-linecap="round" stroke-linejoin="round"/>
<path d="M23.8323 73.9773C27.7292 70.0804 28.3569 64.3904 25.2348 61.2681C22.1125 58.1457 16.4223 58.7737 12.5256 62.6706C8.62866 66.5674 8.00072 72.2576 11.123 75.3799C14.2453 78.502 19.9353 77.8742 23.8323 73.9773Z" stroke="white" stroke-width="1.75" stroke-miterlimit="10" stroke-linecap="round" stroke-linejoin="round"/>
<path d="M13.2777 76.6659C12.3275 73.009 14.5217 69.2741 18.1787 68.3239C21.8356 67.3736 24.03 63.6387 23.0798 59.9818" stroke="white" stroke-width="1.75" stroke-miterlimit="10" stroke-linecap="round" stroke-linejoin="round"/>
<path d="M51.8477 35.3863H76.176V46.8559C76.176 58.6157 71.0486 69.7364 62.2281 77.3656" stroke="white" stroke-width="1.75" stroke-miterlimit="10" stroke-linecap="round" stroke-linejoin="round"/>
<path d="M13.4187 61.9034C11.5197 57.1807 10.5073 52.0814 10.5073 46.8558V35.3862H46H52" stroke="white" stroke-width="1.75" stroke-miterlimit="10" stroke-linecap="round" stroke-linejoin="round"/>
</svg>
