<svg width="37" height="37" viewBox="0 0 37 37" fill="none" xmlns="http://www.w3.org/2000/svg">
<g clip-path="url(#clip0_3403_3243)">
<path d="M36.3836 4.93357H29.6V4.40965C29.6 3.33867 28.7285 2.46715 27.6575 2.46715H20.35L21.3364 1.72715C21.6089 1.52336 21.6638 1.13674 21.46 0.863574C21.2562 0.591855 20.8696 0.536211 20.5964 0.74L19.1164 1.85V0.616426C19.1164 0.276055 18.8404 0 18.5 0C18.1596 0 17.8836 0.276055 17.8836 0.616426V1.85L16.4036 0.74C16.1311 0.536211 15.7452 0.591855 15.54 0.863574C15.3362 1.13602 15.3904 1.52264 15.6636 1.72715L16.65 2.46715H9.3425C8.27152 2.46715 7.4 3.33867 7.4 4.40965V4.93357H0.616426C0.276055 4.93357 0 5.20963 0 5.55V28.3664C0 28.7068 0.276055 28.9829 0.616426 28.9829H14.0875L8.16313 35.9847C7.94271 36.2448 7.97523 36.6343 8.23539 36.8533C8.49482 37.0737 8.88506 37.0412 9.10402 36.781L13.6156 31.4493H23.3844L27.896 36.781C28.0181 36.9256 28.1923 36.9993 28.3671 36.9993C28.5081 36.9993 28.6497 36.9509 28.7653 36.8533C29.0248 36.6336 29.0573 36.2448 28.8376 35.9847L22.9133 28.9829H36.3836C36.7239 28.9829 37 28.7068 37 28.3664V5.55C37 5.20963 36.7239 4.93357 36.3836 4.93357ZM8.63357 4.40893C8.63357 4.01797 8.95154 3.7 9.3425 3.7H27.6575C28.0485 3.7 28.3664 4.01797 28.3664 4.40893V4.93285H8.63357V4.40893ZM22.3409 30.2164H14.6591L15.7026 28.9829H21.2967L22.3402 30.2164H22.3409ZM35.7664 27.75H1.23357V6.16643H35.7671V27.75H35.7664Z" fill="white"/>
<path d="M27.2117 11.7165H20.9672V10.4829C20.9672 10.1425 20.6911 9.86646 20.3508 9.86646H16.6508C16.3104 9.86646 16.0343 10.1425 16.0343 10.4829V11.7165H9.78986C9.51525 10.6534 8.54906 9.86646 7.40148 9.86646C6.04145 9.86646 4.93506 10.9728 4.93506 12.3329C4.93506 13.6929 6.04145 14.7993 7.40148 14.7993C8.54906 14.7993 9.51598 14.0123 9.78986 12.9493H12.3835C10.2964 14.2674 8.85619 16.5207 8.65746 19.1157H7.40076C7.06039 19.1157 6.78434 19.3918 6.78434 19.7322V23.4322C6.78434 23.7725 7.06039 24.0486 7.40076 24.0486H11.1008C11.4411 24.0486 11.7172 23.7725 11.7172 23.4322V19.7322C11.7172 19.3918 11.4411 19.1157 11.1008 19.1157H9.89609C10.1902 15.8667 12.7853 13.2716 16.0343 12.9775V14.1822C16.0343 14.5225 16.3104 14.7986 16.6508 14.7986H20.3508C20.6911 14.7986 20.9672 14.5225 20.9672 14.1822V12.9775C24.2162 13.2716 26.8113 15.8667 27.1054 19.1157H25.9008C25.5604 19.1157 25.2843 19.3918 25.2843 19.7322V23.4322C25.2843 23.7725 25.5604 24.0486 25.9008 24.0486H29.6008C29.9411 24.0486 30.2172 23.7725 30.2172 23.4322V19.7322C30.2172 19.3918 29.9411 19.1157 29.6008 19.1157H28.3441C28.1453 16.52 26.7058 14.2667 24.618 12.9493H27.2117C27.4863 14.0123 28.4525 14.7993 29.6 14.7993C30.9601 14.7993 32.0665 13.6929 32.0665 12.3329C32.0665 10.9728 30.9601 9.86646 29.6 9.86646C28.4525 9.86646 27.4855 10.6534 27.2117 11.7165ZM10.4836 22.8165H8.01719V20.35H10.4836V22.8165ZM28.9836 22.8165H26.5172V20.35H28.9836V22.8165ZM7.40004 13.5665C6.72002 13.5665 6.16646 13.0136 6.16646 12.3329C6.16646 11.6521 6.7193 11.0993 7.40004 11.0993C8.08078 11.0993 8.63361 11.6521 8.63361 12.3329C8.63361 13.0136 8.08078 13.5665 7.40004 13.5665ZM19.7336 13.5665H17.2672V11.1H19.7336V13.5665ZM29.6 11.1C30.2801 11.1 30.8336 11.6529 30.8336 12.3336C30.8336 13.0143 30.2808 13.5672 29.6 13.5672C28.9193 13.5672 28.3665 13.0143 28.3665 12.3336C28.3665 11.6529 28.9193 11.1 29.6 11.1Z" fill="white"/>
</g>
<defs>
<clipPath id="clip0_3403_3243">
<rect width="37" height="37" fill="white"/>
</clipPath>
</defs>
</svg>
